<svg xmlns="http://www.w3.org/2000/svg" viewBox="28 14 555 126" preserveAspectRatio="xMidYMid meet">

<g transform="translate(0, 0)">
<path d="M93.22 66.17c5.68-5.41 9.19-12.68 9.19-20.7 0-16.63-15.01-30.15-33.46-30.15H31.08c-1.24 0-2.24 1-2.24 2.24v100.96c0 1.24 1 2.24 2.24 2.24H73.7c18.46 0 33.47-13.53 33.47-30.16 0-10.05-5.52-18.95-13.95-24.43M67.4 56.82H53.41c-.21 0-.36-.14-.44-.33-.03-.06-.08-.12-.08-.19V36c0-.07.05-.13.08-.19.08-.18.23-.33.44-.33H67.4c5.61 0 10.18 4.78 10.18 10.66 0 5.89-4.57 10.68-10.18 10.68m.85 44.48H53.49c-.04 0-.07-.04-.11-.05-.22-.06-.4-.23-.4-.47V77.14c0-.24.18-.41.4-.47.05-.01.07-.05.11-.05h14.75c.28 0 .56.02.83.05 5.84.47 10.46 5.79 10.46 12.29 0 6.48-4.6 11.8-10.43 12.29-.27.02-.56.05-.85.05" fill="#0099cc"/>
</g>

<g transform="translate(77, 0)"> 
<path d="M102.89 99.51H57.24v-82c0-1.24-1-2.24-2.24-2.24H33.11c-1.24 0-2.24 1-2.24 2.24v100.96c0 1.24 1 2.24 2.24 2.24h69.79c1.24 0 2.24-1 2.24-2.24v-16.72a2.251 2.251 0 0 0-2.25-2.24z" fill="#0099cc"/>
</g>

<g transform="translate(134, 0) "> 
  <path d="M76.32 16.27H51.68c-1.29 0-2.33 1.05-2.33 2.33v99.96c0 1.29 1.04 2.33 2.33 2.33h24.64c1.29 0 2.33-1.04 2.33-2.33V18.6c0-1.28-1.04-2.33-2.33-2.33" fill="#0099cc"/>
</g>
  
<g transform="translate(340, 8) scale(-3.9 3.9)">
<path fill="#ffcc33" d="M30.8 2.29a.49.49 0 0 0-.45-.29H16.42a.5.5 0 0 0-.42.23l-10.71 17a.49.49 0 0 0 .41.77h7.67L6.6 33.25a.52.52 0 0 0 .46.75h3a.5.5 0 0 0 .37-.16L28 14.85a.5.5 0 0 0-.37-.85h-6.74l9.83-11.18a.49.49 0 0 0 .08-.53"/>
</g>

<g transform="translate(296, 0)"> 
<path d="M102.89 99.51H57.24v-82c0-1.24-1-2.24-2.24-2.24H33.11c-1.24 0-2.24 1-2.24 2.24v100.96c0 1.24 1 2.24 2.24 2.24h69.79c1.24 0 2.24-1 2.24-2.24v-16.72a2.251 2.251 0 0 0-2.25-2.24z" fill="#0099cc"/>
</g>
<g transform="translate(389, 0) "> 
  <path d="M115.37 117.77 77.78 17.81a2.24 2.24 0 0 0-2.1-1.45H52.32c-.94 0-1.77.58-2.1 1.45l-37.59 99.96c-.26.69-.17 1.46.25 2.06s1.1.97 1.84.97h24.64c.96 0 1.82-.62 2.13-1.54l5.7-17.18H80.8l5.71 17.18c.3.92 1.16 1.54 2.13 1.54h24.64a2.236 2.236 0 0 0 2.09-3.03m-61.14-36.9L64 51.45l9.77 29.43H54.23z" fill="#0099cc"/>
</g>

<g transform="translate(476, 0) "> 
<path d="M93.22 66.17c5.68-5.41 9.19-12.68 9.19-20.7 0-16.63-15.01-30.15-33.46-30.15H31.08c-1.24 0-2.24 1-2.24 2.24v100.96c0 1.24 1 2.24 2.24 2.24H73.7c18.46 0 33.47-13.53 33.47-30.16 0-10.05-5.52-18.95-13.95-24.43M67.4 56.82H53.41c-.21 0-.36-.14-.44-.33-.03-.06-.08-.12-.08-.19V36c0-.07.05-.13.08-.19.08-.18.23-.33.44-.33H67.4c5.61 0 10.18 4.78 10.18 10.66 0 5.89-4.57 10.68-10.18 10.68m.85 44.48H53.49c-.04 0-.07-.04-.11-.05-.22-.06-.4-.23-.4-.47V77.14c0-.24.18-.41.4-.47.05-.01.07-.05.11-.05h14.75c.28 0 .56.02.83.05 5.84.47 10.46 5.79 10.46 12.29 0 6.48-4.6 11.8-10.43 12.29-.27.02-.56.05-.85.05" fill="#0099cc"/>
</g>
</svg>
